<svg xmlns="http://www.w3.org/2000/svg" width="1400" height="900" viewBox="0 0 1400 900"><rect width="1400" height="900" fill="#f7f7f8"/><style>text{font-family:Inter,Arial,sans-serif;fill:#171717}.h{font-size:28px;font-weight:700}.s{font-size:18px;font-weight:600}.m{font-size:15px;fill:#666}</style><text x="60" y="60" class="h">NEXUS Organization Administration — Visual Reference</text><rect x="50" y="100" width="1300" height="730" rx="20" fill="white" stroke="#ddd"/><rect x="70" y="120" width="230" height="690" rx="14" fill="#f1f1f2"/><text x="95" y="165" class="h">NEXUS</text><rect x="90" y="195" width="185" height="44" rx="9" fill="#171717"/><text x="125" y="223" fill="white" font-size="15">+ New Chat</text><text x="95" y="275" class="s">Chats</text><text x="95" y="315" class="s">Projects</text><text x="95" y="355" class="s">Knowledge</text><text x="95" y="395" class="s">Files</text><text x="95" y="435" class="s">Tools</text><text x="95" y="475" class="s">Agents</text><text x="95" y="515" class="s">Workflows</text><text x="95" y="590" class="s">Settings</text><text x="95" y="630" class="s">Organization</text><rect x="330" y="120" width="990" height="690" rx="14" fill="white"/><text x="370" y="175" class="h">Organization Settings</text><text x="370" y="215" class="s">Members</text><rect x="1080" y="185" width="180" height="46" rx="9" fill="#171717"/><text x="1115" y="214" fill="white" font-size="15">Invite member</text><rect x="370" y="260" width="890" height="54" rx="8" fill="#f1f1f2"/><text x="390" y="294" class="m">Name</text><text x="570" y="294" class="m">Email</text><text x="790" y="294" class="m">Role</text><text x="930" y="294" class="m">Status</text><text x="1100" y="294" class="m">Actions</text><g font-size="15"><text x="390" y="355">User One</text><text x="570" y="355">user@example.com</text><text x="790" y="355">Administrator</text><text x="930" y="355">Active</text><text x="1100" y="355">⋯</text><text x="390" y="415">User Two</text><text x="570" y="415">member@example.com</text><text x="790" y="415">Member</text><text x="930" y="415">Active</text><text x="1100" y="415">⋯</text><text x="390" y="475">User Three</text><text x="570" y="475">disabled@example.com</text><text x="790" y="475">Member</text><text x="930" y="475">Deactivated</text><text x="1100" y="475">⋯</text></g><line x1="370" y1="520" x2="1260" y2="520" stroke="#ddd"/><text x="370" y="570" class="s">Security-sensitive actions require confirmation</text><text x="370" y="610" class="m">Change role · Deactivate · Reactivate · Remove · Revoke sessions · Require OTP re-auth</text><text x="370" y="680" class="m">Non-admin users may not see administrative controls, but the backend remains the authority.</text></svg>